PathFileType	4	(X/Y/Z)	OpenSim_Sub01_CSBaseline_Magnet.trc
DataRate	CameraRate	NumFrames	NumMarkers	Units	OrigDataRate	OrigDataStartFrame	OrigNumFrames
100	100	30	8	m	100	2232	5950
Frame#	Time	torso_imu_offset_imu	pelvis_imu_offset_imu	tibia_r_imu_offset_imu	femur_r_imu_offset_imu	tibia_l_imu_offset_imu	femur_l_imu_offset_imu	toes_r_imu_offset_imu	toes_l_imu_offset_imu
				X1	Y1	Z1	X2	Y2	Z2	X3	Y3	Z3	X4	Y4	Z4	X5	Y5	Z5	X6	Y6	Z6	X7	Y7	Z7	X8		Y8	Z8	

2232	22.31000000	-0.91533329	-0.15086962	0.08397361	-0.67002696	0.19112751	-0.62851989	-0.67458878	-0.40667405	-0.08614355	-0.79827758	-0.23435006	0.04105118	-0.49928426	0.59413794	0.24572534	-0.40063208	-0.01977616	0.34128325	-0.66133631	-0.05071920	-0.45238728	-0.72763741	-0.15849879	-0.32805586
2233	22.32000000	-0.91350501	-0.14995866	0.08564760	-0.67140164	0.18774733	-0.62633852	-0.69054537	-0.37954158	-0.08233473	-0.79892302	-0.23369174	0.04182255	-0.49346310	0.59974434	0.24599473	-0.39532479	-0.01142187	0.34390677	-0.65175904	-0.03863744	-0.47082051	-0.72889011	-0.15874852	-0.32563333
2234	22.33000000	-0.91251070	-0.15029625	0.08752166	-0.67426225	0.18596545	-0.62593772	-0.70351495	-0.35510537	-0.07900958	-0.79905556	-0.23280928	0.04508498	-0.48881433	0.60465954	0.24504722	-0.39328565	-0.00678429	0.34532336	-0.64233526	-0.02470050	-0.48787140	-0.72985878	-0.15986819	-0.32476580
2235	22.34000000	-0.91253239	-0.15145631	0.08940068	-0.67731460	0.18543569	-0.62709600	-0.71335110	-0.33421534	-0.07670136	-0.79825390	-0.23312510	0.05023595	-0.48476288	0.60951918	0.24296177	-0.39333297	-0.00555811	0.34594327	-0.63282918	-0.00954577	-0.50331967	-0.72991765	-0.16185328	-0.32499239
2236	22.35000000	-0.91327864	-0.15213632	0.09079171	-0.67843977	0.18488898	-0.62836931	-0.72118818	-0.31652450	-0.07663937	-0.79678517	-0.23628641	0.05501944	-0.48019342	0.61600717	0.24011017	-0.39169540	-0.00490839	0.34697695	-0.62299772	0.00531911	-0.51662340	-0.72861538	-0.16361117	-0.32517280
2237	22.36000000	-0.91435980	-0.15158723	0.09132240	-0.67681274	0.18372835	-0.62877634	-0.72768666	-0.30171103	-0.07899943	-0.79493664	-0.24246028	0.05793225	-0.47449666	0.62450293	0.23710572	-0.38656851	-0.00287286	0.34917609	-0.61313904	0.01876247	-0.52737209	-0.72622358	-0.16431458	-0.32433697
2238	22.37000000	-0.91518065	-0.15032020	0.09089807	-0.67451929	0.18288320	-0.62840344	-0.73241276	-0.28954384	-0.08158663	-0.79302071	-0.24850463	0.05919866	-0.46820789	0.63244487	0.23509214	-0.38061128	0.00049056	0.35224567	-0.60475907	0.03051666	-0.53545767	-0.72462190	-0.16375969	-0.32191440
2239	22.38000000	-0.91521677	-0.14899919	0.08955459	-0.67383292	0.18329183	-0.62744546	-0.73488512	-0.27989276	-0.08213673	-0.79135971	-0.25121973	0.05930830	-0.46196469	0.63728437	0.23509832	-0.37682224	0.00481326	0.35565929	-0.59938565	0.04036268	-0.54086877	-0.72571988	-0.16192989	-0.31744654
2240	22.39000000	-0.91496175	-0.14810541	0.08828781	-0.67489946	0.18385217	-0.62572555	-0.73565929	-0.27354261	-0.08098076	-0.79034336	-0.25143289	0.05907759	-0.45586147	0.64071517	0.23622692	-0.37547057	0.00934093	0.35796401	-0.59708543	0.04737672	-0.54416960	-0.72948964	-0.15987028	-0.31107278
2241	22.40000000	-0.91550659	-0.14800977	0.08865384	-0.67661126	0.18226599	-0.62285098	-0.73589992	-0.27181272	-0.07997751	-0.79039870	-0.25233864	0.05951345	-0.44967096	0.64692071	0.23644840	-0.37521614	0.01309350	0.35716959	-0.59706381	0.05022126	-0.54626110	-0.73475965	-0.15924684	-0.30328636
2242	22.41000000	-0.91728432	-0.14854868	0.09094149	-0.67823079	0.17780104	-0.61913684	-0.73621031	-0.27489813	-0.08030236	-0.79144173	-0.25535565	0.06115258	-0.44289444	0.65736149	0.23460051	-0.37487879	0.01546049	0.35325750	-0.59867940	0.04798624	-0.54744682	-0.74020724	-0.16055943	-0.29482407
2243	22.42000000	-0.91924265	-0.14836923	0.09259574	-0.67988230	0.17325378	-0.61648379	-0.73592374	-0.28046988	-0.08156161	-0.79224704	-0.25787184	0.06347688	-0.43443686	0.66735047	0.23148875	-0.37368173	0.01666267	0.35062411	-0.60165752	0.04072742	-0.54668756	-0.74420551	-0.16168816	-0.28695593
2244	22.43000000	-0.92023593	-0.14613857	0.09099862	-0.68175933	0.17146484	-0.61674138	-0.73424016	-0.28612664	-0.08307558	-0.79157958	-0.25713653	0.06583873	-0.42335917	0.67203464	0.22809209	-0.37101016	0.01709074	0.35364187	-0.60589429	0.02888526	-0.54282371	-0.74538982	-0.16037867	-0.28074607
2245	22.44000000	-0.92022969	-0.14239229	0.08685488	-0.68356656	0.17080170	-0.61901714	-0.73075709	-0.29224574	-0.08340372	-0.78969854	-0.25459822	0.06772609	-0.41116620	0.67343453	0.22443132	-0.36735819	0.01772886	0.36026932	-0.61253701	0.01552299	-0.53532754	-0.74552799	-0.15664820	-0.27438860
2246	22.45000000	-0.91984448	-0.13876479	0.08282452	-0.68472248	0.16700639	-0.62080520	-0.72530994	-0.30083707	-0.08066302	-0.78774287	-0.25417327	0.06870773	-0.40079591	0.67761105	0.21996433	-0.36387291	0.01990717	0.36469291	-0.62346437	0.00523738	-0.52404302	-0.74822644	-0.15185420	-0.26439373
2247	22.46000000	-0.91959789	-0.13616369	0.08052939	-0.68511261	0.15864099	-0.62049137	-0.71844604	-0.31252220	-0.07433046	-0.78647247	-0.25781205	0.06851314	-0.39338677	0.68757817	0.21464532	-0.36144516	0.02408711	0.36354175	-0.63914230	-0.00026842	-0.50858118	-0.75511942	-0.14739995	-0.24922302
2248	22.47000000	-0.91975898	-0.13384330	0.07921857	-0.68567269	0.15063557	-0.61849751	-0.71229435	-0.32477788	-0.06693024	-0.78577617	-0.26300707	0.06722811	-0.38602072	0.69943471	0.20955208	-0.36037525	0.02878187	0.35900408	-0.65686328	-0.00579183	-0.48802261	-0.76338782	-0.14475238	-0.23174039
2249	22.48000000	-0.92051883	-0.13092573	0.07787090	-0.68732935	0.14820858	-0.61558956	-0.70891802	-0.33496365	-0.06102165	-0.78539239	-0.26689251	0.06501056	-0.37549493	0.70875973	0.20576594	-0.36079728	0.03229504	0.35386401	-0.67362491	-0.01644506	-0.46183414	-0.76992434	-0.14506354	-0.21505206
2250	22.49000000	-0.92161080	-0.12747762	0.07598983	-0.68944779	0.15066029	-0.61324147	-0.70749143	-0.34362194	-0.05526932	-0.78472311	-0.26913024	0.06226531	-0.36133295	0.71542576	0.20283499	-0.36195473	0.03348783	0.34929205	-0.68781339	-0.03150957	-0.43421084	-0.77486737	-0.14614609	-0.19861557
2251	22.50000000	-0.92250022	-0.12412187	0.07338891	-0.69047633	0.15380715	-0.61333703	-0.70548867	-0.35316821	-0.04605161	-0.78297521	-0.27086977	0.05954598	-0.34466719	0.72183494	0.19940427	-0.36257038	0.03155364	0.34550386	-0.69863624	-0.04683243	-0.41212289	-0.78026476	-0.14385420	-0.17973921
2252	22.51000000	-0.92308101	-0.12129486	0.07002317	-0.68975552	0.15504135	-0.61610635	-0.70118624	-0.36503741	-0.03212908	-0.78007038	-0.27252867	0.05807320	-0.32674349	0.72972149	0.19442133	-0.36237755	0.02636922	0.34208375	-0.70576929	-0.05937175	-0.39953298	-0.78706749	-0.13646375	-0.15640053
2253	22.52000000	-0.92421110	-0.11900056	0.06615439	-0.68864322	0.15537138	-0.61807795	-0.69470011	-0.37842273	-0.01764345	-0.77753074	-0.27284832	0.06055162	-0.30901442	0.73925625	0.18753462	-0.36337922	0.01932646	0.33723485	-0.70990961	-0.06866379	-0.39361332	-0.79372409	-0.12771067	-0.12813219
2254	22.53000000	-0.92671827	-0.11716400	0.06205255	-0.68867242	0.15614657	-0.61573297	-0.68649568	-0.39219866	-0.00710735	-0.77687947	-0.27066340	0.06946951	-0.29272873	0.75028150	0.17844605	-0.36759895	0.01189060	0.32927673	-0.71188612	-0.07469519	-0.39074017	-0.79844974	-0.12160857	-0.09461166
2255	22.54000000	-0.92977267	-0.11549884	0.05764408	-0.69036612	0.15718345	-0.61023444	-0.67807619	-0.40508110	-0.00134578	-0.77741463	-0.26811277	0.08300817	-0.27674201	0.76143092	0.16643016	-0.37410240	0.00416724	0.31966017	-0.71246226	-0.07850128	-0.38855823	-0.80054662	-0.11741094	-0.05483870
2256	22.55000000	-0.93157188	-0.11359502	0.05265528	-0.69364868	0.15739553	-0.60550070	-0.67155114	-0.41569680	0.00099193	-0.77712586	-0.26927479	0.09681319	-0.25850587	0.77063230	0.15051550	-0.38021716	-0.00453729	0.31167286	-0.71236215	-0.08173259	-0.38546542	-0.79995901	-0.11157287	-0.00742647
2257	22.56000000	-0.93142849	-0.11124173	0.04735654	-0.69782463	0.15594063	-0.60405834	-0.66776232	-0.42360892	0.00132237	-0.77488171	-0.27617177	0.10759106	-0.23711027	0.77731007	0.13102728	-0.38471818	-0.01432618	0.30642667	-0.71216262	-0.08532119	-0.38090702	-0.79681789	-0.10260118	0.04621648
2258	22.57000000	-0.93117115	-0.10867639	0.04323798	-0.70083294	0.15254774	-0.60524913	-0.66470550	-0.43047259	0.00114643	-0.77154964	-0.28618244	0.11448859	-0.21534125	0.78424846	0.11119092	-0.38966000	-0.02396213	0.30012572	-0.71211300	-0.08857828	-0.37664351	-0.79165230	-0.09366130	0.09843321
2259	22.58000000	-0.93269951	-0.10616763	0.04173884	-0.70070452	0.14718425	-0.60796697	-0.66022601	-0.43807237	0.00188335	-0.76816565	-0.29625250	0.11710466	-0.19615369	0.79421756	0.09435906	-0.39728135	-0.03216653	0.28881082	-0.71236653	-0.09066389	-0.37447770	-0.78497240	-0.08806052	0.14165098
2260	22.59000000	-0.93513201	-0.10368032	0.04206893	-0.69832682	0.14148085	-0.61093086	-0.65459133	-0.44660693	0.00399129	-0.76471349	-0.30534351	0.11629621	-0.17908272	0.80514854	0.08114620	-0.40714118	-0.03910677	0.27369209	-0.71254190	-0.09144159	-0.37341479	-0.77653727	-0.08406346	0.17789484
2261	22.60000000	-0.93595350	-0.10100018	0.04212687	-0.69626713	0.13804098	-0.61276153	-0.64949394	-0.45533952	0.00735981	-0.76055794	-0.31360737	0.11366191	-0.16165095	0.81213082	0.07055782	-0.41721985	-0.04580135	0.25902018	-0.71194578	-0.09119053	-0.37081809	-0.76566919	-0.07697277	0.21482859
